# xmcd
#
# Track frame offsets: 
#        150
#        40305
#        66485
#        98974
#        128828
#        155170
#        180742
#        209291
#        239023
#
# Disc length: 3535 seconds
#
# Revision: 1
# Processed by: cddbd v1.5.2PL0 Copyright (c) Steve Scherf et al.
# Submitted via: ExactAudioCopy v0.95b3
#
DISCID=880dcd09
DTITLE=Issi Rozen - Homeland Blues
DYEAR=1900
DGENRE=Blues
TTITLE0=Shir Hanoded
TTITLE1=Monday
TTITLE2=Softly as in a Morning Sunrise
TTITLE3=Erev
TTITLE4=Homeland Blues
TTITLE5=Mediterranean Samba
TTITLE6=Late Night Waltz
TTITLE7=Outbound
TTITLE8=I've Grown Accustomed to Her Face
EXTD=Brownstone Recordings
EXTT0=
EXTT1=
EXTT2=
EXTT3=
EXTT4=
EXTT5=
EXTT6=
EXTT7=
EXTT8=
PLAYORDER=
